# xmcd
#
# Track frame offsets:
#	150
#	20255
#	35662
#	49235
#	61957
#	90342
#	105087
#	117345
#	135140
#	152112
#	168280
#	186255
#	200447
#	222110
#	233082
#
# Disc length: 3305 seconds
#
# Revision: 1
# Processed by: cddbd v1.5.1PL2 Copyright (c) Steve Scherf et al.
# Submitted via: audiograbber 1.83.01
#
DISCID=b90ce70f
DTITLE=Grant Lyle - Traces
DYEAR=2002
DGENRE=Blues
TTITLE0=Found The One 
TTITLE1=It's Worth It 
TTITLE2=Can't Be Satisfied 
TTITLE3=Don't Go No Further 
TTITLE4=Traces
TTITLE5=Make It All Right 
TTITLE6=Can't Stop Lovin' My Baby 
TTITLE7=Down On Bending Knees 
TTITLE8=Just A Stranger 
TTITLE9=Ain't Nobody's Business 
TTITLE10=Dig
TTITLE11=All Your Love 
TTITLE12=Another Mile 
TTITLE13=Mellow Down Easy 
TTITLE14=Shufflin' 
EXTD=
EXTT0=
EXTT1=
EXTT2=
EXTT3=
EXTT4=
EXTT5=
EXTT6=
EXTT7=
EXTT8=
EXTT9=
EXTT10=
EXTT11=
EXTT12=
EXTT13=
EXTT14=
PLAYORDER=
